<svg width="170" height="145" viewBox="0 0 170 145" fill="none" xmlns="http://www.w3.org/2000/svg">
<path d="M60.7143 0H12.1429C5.44 0 0 5.41333 0 12.0833V60.4167C0 67.0867 5.44 72.5 12.1429 72.5H48.5714C48.5714 99.1558 26.7871 120.833 0 120.833V145C40.1807 145 72.8571 112.484 72.8571 72.5V12.0833C72.8571 5.41333 67.4171 0 60.7143 0Z" fill="#EAEBE4" fill-opacity="0.35"/>
<path d="M157.857 0H109.286C102.583 0 97.1429 5.41333 97.1429 12.0833V60.4167C97.1429 67.0867 102.583 72.5 109.286 72.5H145.714C145.714 99.1558 123.93 120.833 97.1429 120.833V145C137.324 145 170 112.484 170 72.5V12.0833C170 5.41333 164.56 0 157.857 0Z" fill="#EAEBE4" fill-opacity="0.35"/>
</svg>
