<svg width="75" height="75" viewBox="0 0 75 75" fill="none" xmlns="http://www.w3.org/2000/svg">
<g filter="url(#filter0_i_40_180)">
<circle cx="37.5" cy="37.5" r="37.5" fill="#F8F9F3"/>
</g>
<path d="M54.5911 23.6298C54.5911 22.1834 53.3428 21 51.8172 21H22.7739C21.2483 21 20 22.1834 20 23.6298V29.6388H54.5911V23.6298ZM26.8762 27.2918H26.1273C25.361 27.2918 24.7403 26.7034 24.7403 25.9769C24.7403 25.2504 25.361 24.662 26.1273 24.662H26.878C27.6443 24.662 28.2649 25.2504 28.2649 25.9769C28.2649 26.7034 27.6443 27.2918 26.8762 27.2918ZM32.9616 27.2918H32.2109C31.4446 27.2918 30.8239 26.7034 30.8239 25.9769C30.8239 25.2504 31.4446 24.662 32.2109 24.662H32.9616C33.7279 24.662 34.3485 25.2504 34.3485 25.9769C34.3485 26.7034 33.7279 27.2918 32.9616 27.2918ZM39.0469 27.2918H38.2979C37.5316 27.2918 36.911 26.7034 36.911 25.9769C36.911 25.2504 37.5316 24.662 38.2979 24.662H39.0469C39.8132 24.662 40.4338 25.2504 40.4338 25.9769C40.4338 26.7034 39.8115 27.2918 39.0469 27.2918Z" fill="#9BD003"/>
<path d="M40.9342 49.1981C40.9342 48.0414 41.7282 47.0017 42.907 46.6124L44.8312 45.97C46.2076 45.5134 47.2824 44.5218 47.7747 43.2498L48.4716 41.4603C48.8911 40.3789 50.0145 39.6452 51.2696 39.6452C52.5212 39.6452 53.6463 40.3789 54.0675 41.4683L54.5876 42.798L54.5911 31.2843H20V49.7011C20 51.1109 21.2482 52.2643 22.7737 52.2643H44.3458L42.8965 51.7805C41.7281 51.396 40.9342 50.3563 40.9342 49.1981ZM29.07 38.8491C29.07 38.141 29.6906 37.5675 30.4568 37.5675H44.1277C44.8939 37.5675 45.5145 38.141 45.5145 38.8491C45.5145 39.5573 44.8939 40.1308 44.1277 40.1308H30.4568C29.6906 40.1308 29.07 39.5573 29.07 38.8491ZM34.347 44.6966C33.5808 44.6966 32.9602 44.1231 32.9602 43.415C32.9602 42.7069 33.5808 42.1334 34.347 42.1334H40.2374C41.0037 42.1334 41.6243 42.7069 41.6243 43.415C41.6243 44.1231 41.0037 44.6966 40.2374 44.6966H34.347Z" fill="#9BD003"/>
<path d="M57.8752 48.8173L56.0362 48.1713C53.9946 47.4546 52.3879 45.8862 51.6511 43.8951L50.9887 42.1017C50.9294 41.9394 50.6938 41.9394 50.6344 42.1017L49.972 43.8951C49.2371 45.886 47.6288 47.4528 45.587 48.1713L43.748 48.8173C43.5816 48.8751 43.5816 49.1049 43.748 49.1627L45.587 49.8087C47.6286 50.5254 49.2352 52.0938 49.972 54.0849L50.6344 55.8783C50.6938 56.0406 50.9294 56.0406 50.9887 55.8783L51.6511 54.0849C52.3861 52.094 53.9944 50.5272 56.0362 49.8087L57.8752 49.1627C58.0416 49.1065 58.0416 48.8751 57.8752 48.8173Z" fill="#9BD003"/>
<defs>
<filter id="filter0_i_40_180" x="0" y="0" width="75" height="75" filterUnits="userSpaceOnUse" color-interpolation-filters="sRGB">
<feFlood flood-opacity="0" result="BackgroundImageFix"/>
<feBlend mode="normal" in="SourceGraphic" in2="BackgroundImageFix" result="shape"/>
<feColorMatrix in="SourceAlpha" type="matrix" values="0 0 0 0 0 0 0 0 0 0 0 0 0 0 0 0 0 0 127 0" result="hardAlpha"/>
<feOffset/>
<feGaussianBlur stdDeviation="8"/>
<feComposite in2="hardAlpha" operator="arithmetic" k2="-1" k3="1"/>
<feColorMatrix type="matrix" values="0 0 0 0 0 0 0 0 0 0 0 0 0 0 0 0 0 0 0.04 0"/>
<feBlend mode="normal" in2="shape" result="effect1_innerShadow_40_180"/>
</filter>
</defs>
</svg>
