<svg width="30" height="30" viewBox="0 0 30 30" fill="none" xmlns="http://www.w3.org/2000/svg">
<circle cx="15" cy="15" r="15" fill="#9BD003"/>
<path d="M20.3468 9.02567C18.0672 9.78864 15.3509 13.6707 12.7474 17.6575C11.6424 15.6419 10.4718 14.9689 9.26142 15.6585C9.11202 15.7435 9.0136 15.9065 9.00128 16.0898C8.98898 16.2749 9.06573 16.4538 9.20459 16.5635C10.0822 17.2574 10.9927 18.4872 12.0754 20.4342V20.4336C12.2688 20.7869 12.6203 21.0025 12.9988 21H13.0164C13.4066 20.9962 13.7639 20.7653 13.9532 20.3962C15.0066 18.3287 16.1636 16.3258 17.4192 14.3958C18.448 12.8127 19.5951 11.3229 20.8489 9.94217C21.0176 9.76331 21.0486 9.48172 20.9238 9.26481C20.8073 9.04854 20.5671 8.94893 20.3468 9.02567Z" fill="#19191C"/>
</svg>
