<svg width="11" height="11" viewBox="0 0 11 11" fill="none" xmlns="http://www.w3.org/2000/svg">
<path d="M10.4012 0.023527C8.31156 0.722919 5.82169 4.28146 3.43508 7.93604C2.42219 6.08843 1.34914 5.47152 0.239632 6.10361C0.102684 6.18152 0.0124645 6.33093 0.00117688 6.49894C-0.0101012 6.6687 0.0602532 6.83265 0.187539 6.93323C0.992051 7.56925 1.82664 8.6966 2.81915 10.4814V10.4808C2.99639 10.8046 3.31861 11.0023 3.66554 11H3.68166C4.03934 10.9965 4.36694 10.7849 4.54041 10.4465C5.50602 8.55128 6.56667 6.71528 7.71757 4.94612C8.66063 3.495 9.71221 2.12932 10.8615 0.863653C11.0161 0.6997 11.0446 0.44158 10.9302 0.242741C10.8233 0.0444965 10.6031 -0.0468111 10.4012 0.023527Z" fill="#9BD003"/>
</svg>
