<svg width="75" height="75" viewBox="0 0 75 75" fill="none" xmlns="http://www.w3.org/2000/svg">
<g filter="url(#filter0_i_40_178)">
<circle cx="37.5" cy="37.5" r="37.5" fill="#F8F9F3"/>
</g>
<path d="M25.2101 24.6131C26.1177 24.6131 26.9417 24.992 27.5387 25.603C28.1373 26.2139 28.5069 27.0597 28.5069 27.9925C28.5069 28.9231 28.1373 29.7678 27.5414 30.3798C26.9417 30.9936 26.1177 31.3724 25.2101 31.3724C24.3002 31.3724 23.4752 30.9936 22.8793 30.3826L22.8399 30.3388C22.2672 29.7301 21.9138 28.9026 21.9138 27.9925C21.9138 27.0597 22.2834 26.2139 22.8793 25.603C23.4752 24.992 24.3002 24.6131 25.2101 24.6131ZM26.5716 26.5972C26.2247 26.2411 25.7417 26.02 25.2101 26.02C24.679 26.02 24.1976 26.2411 23.8496 26.5978C23.5017 26.9545 23.2861 27.448 23.2861 27.9925C23.2861 28.5215 23.4893 29.0039 23.8345 29.3728C24.1976 29.7445 24.679 29.9655 25.2101 29.9655C25.7417 29.9655 26.2247 29.7445 26.5721 29.3889C26.919 29.0327 27.1346 28.5375 27.1346 27.9925C27.1346 27.448 26.919 26.9545 26.5716 26.5972ZM39.312 39.1138L45.0276 33.4994C45.2935 33.2374 45.7133 33.2396 45.9764 33.4994L49.5984 37.0566L52.1691 36.5387C52.7418 36.4224 53.2075 36.5908 53.6008 36.9126C53.6921 36.9868 53.7775 37.0688 53.858 37.1569V24.5411C53.858 23.5818 53.4825 22.7094 52.8601 22.0552C52.2183 21.3977 51.3538 21 50.4029 21H21.4556C20.5047 21 19.6398 21.3983 19.0141 22.0397C18.3885 22.6811 18 23.5662 18 24.5411V41.3228L29.4167 30.9326C29.6793 30.6945 30.0721 30.7017 30.3265 30.9365L39.312 39.1138ZM47.957 37.3878L45.502 34.9767L40.3391 40.0483L42.4251 41.947C42.7871 41.6108 43.2388 41.3682 43.7488 41.2652L45.9418 40.8226L46.1385 39.5636C46.2044 39.1387 46.3038 38.7117 46.5031 38.3461C46.7484 37.8936 47.1185 37.5568 47.6923 37.441L47.957 37.3878ZM41.6606 43.1252L29.8695 32.3949L18 43.1972V45.8188C18 46.7782 18.375 47.6512 18.9979 48.3037C19.6403 48.9617 20.5047 49.36 21.4556 49.36H42.4651L41.5542 44.6141C41.4558 44.1001 41.5012 43.5888 41.6606 43.1252ZM46.6728 42.1071L44.0114 42.6444C43.6315 42.7209 43.3149 42.9507 43.114 43.2576C42.9124 43.5656 42.8244 43.9533 42.8995 44.3449L44.7202 53.8327C44.7953 54.2227 45.0195 54.5473 45.3188 54.7533C45.6192 54.9599 45.9974 55.0497 46.3794 54.9727L59.8919 52.2469C60.2587 52.1644 60.564 51.9384 60.7596 51.6398C60.9557 51.3402 61.0438 50.9635 60.9789 50.5824C60.3792 47.4008 59.7714 44.2109 59.1468 41.0348C59.0669 40.6581 58.8464 40.3451 58.5547 40.1441C58.2618 39.9425 57.8945 39.8527 57.5227 39.9192L54.8327 40.4615C54.5598 40.5152 54.2702 40.395 54.1173 40.1374L53.2205 38.6286C53.073 38.3793 52.9147 38.1473 52.7483 38.0115C52.6553 37.9357 52.5494 37.8941 52.4317 37.9179L47.9549 38.8202C47.8382 38.8435 47.7566 38.9233 47.6982 39.0302C47.594 39.2202 47.534 39.496 47.4892 39.7829L47.2244 41.4801C47.1974 41.7836 46.9791 42.0456 46.6728 42.1071ZM51.0496 42.656L50.9826 42.6693C49.8907 42.8992 48.9879 43.5567 48.4114 44.4374C47.8339 45.3198 47.5821 46.4276 47.789 47.5531L47.802 47.6218C48.0262 48.7412 48.6686 49.6668 49.5271 50.2578C50.3872 50.8494 51.4678 51.1081 52.5657 50.8954L52.6294 50.8826C53.7229 50.6533 54.6268 49.9947 55.2039 49.114C55.7814 48.2322 56.0337 47.1238 55.8263 45.9972L55.8138 45.9318C55.5896 44.8113 54.9478 43.8852 54.0882 43.2941C53.2275 42.702 52.1475 42.4433 51.0496 42.656ZM50.7789 41.2785C52.2474 40.9888 53.6954 41.3344 54.8489 42.1287C56.01 42.9275 56.8744 44.1798 57.1672 45.7047C57.453 47.223 57.1159 48.7102 56.3406 49.8939C55.561 51.0843 54.3383 51.9705 52.8509 52.2702C51.3716 52.5632 49.9215 52.2176 48.7664 51.4233C47.6059 50.624 46.7409 49.371 46.4475 47.8434C46.1633 46.3251 46.4999 44.8406 47.2747 43.6575C48.0543 42.4672 49.2764 41.5815 50.7789 41.2785Z" fill="#9BD003"/>
<defs>
<filter id="filter0_i_40_178" x="0" y="0" width="75" height="75" filterUnits="userSpaceOnUse" color-interpolation-filters="sRGB">
<feFlood flood-opacity="0" result="BackgroundImageFix"/>
<feBlend mode="normal" in="SourceGraphic" in2="BackgroundImageFix" result="shape"/>
<feColorMatrix in="SourceAlpha" type="matrix" values="0 0 0 0 0 0 0 0 0 0 0 0 0 0 0 0 0 0 127 0" result="hardAlpha"/>
<feOffset/>
<feGaussianBlur stdDeviation="8"/>
<feComposite in2="hardAlpha" operator="arithmetic" k2="-1" k3="1"/>
<feColorMatrix type="matrix" values="0 0 0 0 0 0 0 0 0 0 0 0 0 0 0 0 0 0 0.04 0"/>
<feBlend mode="normal" in2="shape" result="effect1_innerShadow_40_178"/>
</filter>
</defs>
</svg>
