<svg width="22" height="22" viewBox="0 0 22 22" fill="none" xmlns="http://www.w3.org/2000/svg">
<path d="M11.0018 0C4.93524 0 0 4.93359 0 10.9982C0 14.1638 1.36606 17.1782 3.74796 19.2688C3.93866 19.4347 4.22745 19.4154 4.39523 19.2266C4.56209 19.036 4.54376 18.7473 4.35306 18.5796C2.16919 16.6631 0.915903 13.8998 0.915903 10.9982C0.915903 5.44043 5.44041 0.916514 11.0009 0.916514C16.5605 0.916514 21.0859 5.44043 21.0859 10.9982C21.0859 16.5568 16.5605 21.0798 11.0009 21.0798C9.63577 21.0798 8.76663 20.8314 8.49066 20.3594C8.13952 19.7619 8.68778 18.6951 9.12144 17.9114L9.36989 18.0214C9.6211 18.1323 9.88606 18.1891 10.1593 18.1891C10.934 18.1891 11.6363 17.7318 11.9498 17.0242L12.3523 16.1105C12.7887 15.1252 12.3395 13.9686 11.3539 13.5314L9.98416 12.9265C9.8393 12.8633 9.6972 12.548 9.7027 11.988C9.71003 11.34 9.91357 10.5179 10.261 9.73154C11.0394 7.97092 12.0818 7.22305 12.4385 7.37702L13.8082 7.981C14.7736 8.40535 15.9655 7.93976 16.3872 6.98292L16.7906 6.06915C17.0006 5.59165 17.0143 5.06007 16.8246 4.57249C16.6366 4.08582 16.2699 3.70088 15.7913 3.49008L14.4234 2.88427C14.1456 2.76237 13.8449 2.70097 13.5268 2.70097C11.5583 2.70097 9.11777 5.10773 7.59402 8.55382C5.79338 12.6286 5.97033 16.5229 7.99742 17.4193L8.27796 17.543C7.72512 18.5429 7.10443 19.815 7.6967 20.8269C8.15969 21.616 9.23971 22 10.9982 22C17.0648 22 22 17.0655 22 11.0018C22.0037 4.9336 17.0684 0 11.0018 0Z" fill="#9BD003"/>
</svg>
