<svg width="17" height="28" viewBox="0 0 17 28" fill="none" xmlns="http://www.w3.org/2000/svg">
<path d="M-3.05176e-05 19H9.99997V20.5H-3.05176e-05V19Z" fill="#19191C"/>
<path d="M0.857735 0.280029H6.82174C9.92974 0.280029 12.2817 0.882029 13.8777 2.08603C15.5017 3.26203 16.3137 4.94203 16.3137 7.12603C16.3137 8.30203 16.0337 9.35203 15.4737 10.276C14.9137 11.2 14.1717 11.984 13.2477 12.628C12.3517 13.244 11.3297 13.72 10.1817 14.056C9.06174 14.392 7.94174 14.56 6.82174 14.56H5.22574V25.27C5.22574 25.494 5.25374 25.746 5.30974 26.026C5.36574 26.278 5.44974 26.516 5.56174 26.74C5.70174 26.964 5.84174 27.16 5.98174 27.328C6.14973 27.496 6.34574 27.58 6.56974 27.58H6.77974V28H0.857735V27.58H1.06774C1.26374 27.58 1.44574 27.496 1.61374 27.328C1.78174 27.16 1.92174 26.964 2.03374 26.74C2.14574 26.516 2.22974 26.278 2.28574 26.026C2.34174 25.746 2.36974 25.494 2.36974 25.27V2.88403C2.36974 2.49203 2.25774 2.04403 2.03374 1.54003C1.80974 1.03603 1.48774 0.75603 1.06774 0.700029H0.857735V0.280029ZM5.22574 1.75003V13.09H6.48574C7.60574 13.09 8.59974 12.936 9.46774 12.628C10.3637 12.32 11.1057 11.914 11.6937 11.41C12.2817 10.906 12.7297 10.332 13.0377 9.68803C13.3457 9.04403 13.4997 8.38603 13.4997 7.71403C13.4997 6.90203 13.3597 6.14603 13.0797 5.44603C12.8277 4.71803 12.3937 4.08803 11.7777 3.55603C11.1897 2.99603 10.4057 2.56203 9.42574 2.25403C8.44574 1.91803 7.24174 1.75003 5.81374 1.75003H5.22574Z" fill="#19191C"/>
</svg>
