<svg width="75" height="75" viewBox="0 0 75 75" fill="none" xmlns="http://www.w3.org/2000/svg">
<g filter="url(#filter0_i_40_179)">
<circle cx="37.5" cy="37.5" r="37.5" fill="#F8F9F3"/>
</g>
<path d="M17.9994 41.5696H24.9987C25.5518 41.5696 25.9981 42.1443 25.9981 42.6079V52.9975C25.9981 53.5722 25.5499 54.0358 24.9987 54.0358H17.9994C17.4463 54.0358 17 53.4612 17 52.9975V42.6079C17 42.0332 17.4481 41.5696 17.9994 41.5696Z" fill="#9BD003"/>
<path d="M28.0006 33.2587H35C35.5531 33.2587 35.9993 33.8334 35.9993 34.2971V52.9995C35.9993 53.5742 35.5512 54.0378 35 54.0378H28.0006C27.4475 54.0378 27.0013 53.4631 27.0013 52.9995V34.2971C27.0013 33.7224 27.4494 33.2587 28.0006 33.2587Z" fill="#9BD003"/>
<path d="M55.9999 42.5261V30.1417C55.998 29.567 55.5518 29.1033 55.0005 29.1014H47.9993C47.4481 29.1033 47.0018 29.567 46.9999 30.1417V41.9651C49.9006 40.5702 53.2812 40.7806 55.9999 42.5261Z" fill="#9BD003"/>
<path d="M46.0006 42.5261V38.4525C45.9987 37.8798 45.5524 37.4161 44.9993 37.4141H38C37.4488 37.4161 37.0025 37.8798 37.0006 38.4525V52.9995C37.0025 53.5722 37.4488 54.0359 38 54.0378H41.99C41.6656 53.0345 41.4988 51.9806 41.5006 50.9208C41.5006 47.5017 43.2031 44.3261 46.0006 42.5261Z" fill="#9BD003"/>
<path d="M51.4999 22.349C52.8199 22.3724 54.0049 21.5152 54.4399 20.2197C54.873 18.9261 54.4587 17.4883 53.4124 16.6545C52.3643 15.8207 50.9187 15.7798 49.8312 16.5532C48.7418 17.3286 48.2524 18.741 48.62 20.058L43.2387 23.9719C41.9075 22.9744 40.0494 23.2842 39.0875 24.6673L34.4863 23.2335H34.4844C34.4563 22.3412 34.0588 21.5055 33.395 20.9385C32.7313 20.3716 31.865 20.1281 31.0175 20.2683C30.1701 20.4106 29.4201 20.9249 28.9626 21.6788C28.5032 22.4347 28.3795 23.3562 28.6195 24.2133L23.2382 28.1272C22.0157 27.1902 20.3188 27.311 19.2294 28.4117C18.14 29.5124 17.9769 31.2716 18.8451 32.5671C19.7113 33.8646 21.3557 34.3185 22.7281 33.6405C24.1006 32.9625 24.8 31.3514 24.38 29.8338L29.7613 25.9199C31.0925 26.9174 32.9506 26.6076 33.9125 25.2244L38.5137 26.6583H38.5156C38.5437 27.5506 38.9412 28.3863 39.605 28.9532C40.2687 29.5201 41.135 29.7637 41.9824 29.6234C42.8299 29.4812 43.5799 28.9669 44.0374 28.213C44.4968 27.4571 44.6205 26.5356 44.3805 25.6784L49.7618 21.7645C50.2681 22.1425 50.8755 22.3471 51.4999 22.349Z" fill="#9BD003"/>
<path d="M50.9993 42.6099C48.3649 42.608 45.8974 43.9561 44.4051 46.214C42.9125 48.47 42.5863 51.3475 43.5332 53.9015C44.4801 56.4575 46.5782 58.3647 49.1434 59V53.0367H46.3572L50.9997 46.7656L55.6422 53.0367H52.8578V59C55.4209 58.3649 57.519 56.4576 58.4661 53.9015C59.413 51.3474 59.0867 48.4698 57.5961 46.214C56.1036 43.9561 53.6361 42.608 50.9999 42.6099H50.9993Z" fill="#9BD003"/>
<defs>
<filter id="filter0_i_40_179" x="0" y="0" width="75" height="75" filterUnits="userSpaceOnUse" color-interpolation-filters="sRGB">
<feFlood flood-opacity="0" result="BackgroundImageFix"/>
<feBlend mode="normal" in="SourceGraphic" in2="BackgroundImageFix" result="shape"/>
<feColorMatrix in="SourceAlpha" type="matrix" values="0 0 0 0 0 0 0 0 0 0 0 0 0 0 0 0 0 0 127 0" result="hardAlpha"/>
<feOffset/>
<feGaussianBlur stdDeviation="8"/>
<feComposite in2="hardAlpha" operator="arithmetic" k2="-1" k3="1"/>
<feColorMatrix type="matrix" values="0 0 0 0 0 0 0 0 0 0 0 0 0 0 0 0 0 0 0.04 0"/>
<feBlend mode="normal" in2="shape" result="effect1_innerShadow_40_179"/>
</filter>
</defs>
</svg>
