<svg width="45" height="45" viewBox="0 0 45 45" fill="none" xmlns="http://www.w3.org/2000/svg">
<circle cx="22.5" cy="22.5" r="22.5" fill="#4D81CF"/>
<path fill-rule="evenodd" clip-rule="evenodd" d="M33.2203 16.3351C33.3872 15.7743 33.2203 15.3667 32.4821 15.3667H30.0272C29.408 15.3667 29.1221 15.7236 28.9552 16.1055C28.9552 16.1055 27.6924 19.3668 25.9289 21.4812C25.357 22.0927 25.095 22.2966 24.7852 22.2966C24.6183 22.2966 24.4036 22.0927 24.4036 21.5324V16.3088C24.4036 15.6466 24.2133 15.3408 23.6888 15.3408H19.8281C19.4466 15.3408 19.2084 15.6466 19.2084 15.9523C19.2084 16.5892 20.0902 16.7423 20.1853 18.5256V22.4005C20.1853 23.2412 20.0447 23.3948 19.7325 23.3948C18.8986 23.3948 16.8731 20.1081 15.6581 16.363C15.4219 15.6212 15.1819 15.3408 14.5622 15.3408H12.0839C11.3691 15.3408 11.25 15.6973 11.25 16.0796C11.25 16.7677 12.0839 20.2324 15.1341 24.8182C17.1595 27.9503 20.0428 29.6336 22.6402 29.6336C24.2133 29.6336 24.4036 29.2513 24.4036 28.6145V26.245C24.4036 25.4809 24.5466 25.3536 25.0472 25.3536C25.4044 25.3536 26.048 25.5569 27.5016 27.0604C29.1694 28.8437 29.4553 29.659 30.3849 29.659H32.8392C33.5541 29.659 33.8878 29.2767 33.6971 28.5379C33.4828 27.7991 32.6724 26.7292 31.6238 25.4555C31.0519 24.7426 30.1941 23.9526 29.9321 23.5703C29.5749 23.0607 29.67 22.8569 29.9321 22.3985C29.9081 22.3985 32.911 17.8634 33.2203 16.3332" fill="white"/>
</svg>
