<svg width="134" height="75" viewBox="0 0 134 75" fill="none" xmlns="http://www.w3.org/2000/svg">
<g clip-path="url(#clip0_1_3)">
<mask id="mask0_1_3" style="mask-type:luminance" maskUnits="userSpaceOnUse" x="0" y="0" width="134" height="75">
<path d="M134 0H0V75H134V0Z" fill="white"/>
</mask>
<g mask="url(#mask0_1_3)">
<path fill-rule="evenodd" clip-rule="evenodd" d="M66.3608 0.000907295C66.9699 -0.0064825 67.3459 0.0304665 67.7896 0.141313C68.1204 0.229991 68.6618 0.429516 68.9927 0.584702C69.3236 0.747281 69.7823 1.02809 70.0079 1.20545C70.2334 1.3828 70.5643 1.70795 70.7373 1.92225C70.9102 2.14395 71.1358 2.49127 71.2411 2.69079C71.3464 2.89771 71.4817 3.27459 71.5569 3.54062C71.6471 3.88794 71.6697 4.18354 71.6396 4.61215C71.6095 4.9373 71.5719 5.3733 71.5419 5.57282C71.5043 5.86841 71.5193 5.96448 71.6171 6.03838C71.7148 6.11227 71.8276 6.10488 72.2111 6.00882C72.5119 5.93492 72.8954 5.89797 73.2789 5.92014C73.7677 5.93492 73.9782 5.98665 74.3692 6.17139C74.7076 6.33397 74.9859 6.54088 75.2566 6.83648C75.5348 7.14684 75.7002 7.41288 75.8205 7.75278C75.9409 8.10015 75.986 8.4031 75.986 8.86131C75.986 9.37855 75.9559 9.5485 75.8055 9.82197C75.7077 10.0067 75.5047 10.3023 75.3543 10.4797C75.2039 10.657 74.9107 10.9009 74.7076 11.0117C74.4971 11.1299 74.1061 11.2703 73.8203 11.3369C73.5421 11.396 73.1661 11.4477 72.9781 11.4477C72.7525 11.4477 72.6021 11.4034 72.5194 11.3147C72.4593 11.2482 72.4217 11.1373 72.4517 11.0782C72.4818 11.0191 72.5345 10.8196 72.5796 10.6349C72.6472 10.3688 72.6397 10.2505 72.557 10.0584C72.4969 9.91803 72.369 9.75547 72.2637 9.69636C72.1284 9.60769 71.9855 9.59291 71.7374 9.62985C71.5494 9.65941 71.2336 9.77025 71.0305 9.88108C70.835 9.99192 70.4816 10.2432 70.2485 10.4501C70.0229 10.6496 69.5717 11.1669 69.2484 11.5955C68.9175 12.0241 68.4738 12.7187 68.2483 13.1474C68.0227 13.576 67.8046 14.0416 67.767 14.1819C67.7219 14.3371 67.7219 14.4923 67.7595 14.5662C67.7971 14.6401 67.8648 14.6992 67.9024 14.6992C67.94 14.6992 68.2708 14.5071 68.6393 14.278C69.0002 14.0489 69.5943 13.7164 69.9703 13.5464C70.3462 13.3765 70.8576 13.1622 71.1208 13.0809C71.3764 12.9921 71.8351 12.8739 72.1359 12.8148C72.4292 12.7483 73.0007 12.6744 73.3917 12.6522C73.8654 12.6301 74.3993 12.6522 74.9708 12.7335C75.4446 12.8 76.0386 12.9035 76.2868 12.97C76.5349 13.0292 76.9936 13.1843 77.3019 13.3026C77.6102 13.4282 78.1215 13.6794 78.4299 13.8716C78.7382 14.0563 79.2495 14.4627 79.5653 14.7732C79.8736 15.0761 80.2722 15.5639 80.4451 15.8447C80.6181 16.1254 80.8512 16.6132 80.9565 16.9162C81.1144 17.3522 81.1595 17.6625 81.1896 18.3572C81.2196 19.0075 81.1971 19.4065 81.1144 19.8352C81.0467 20.1603 80.8888 20.6776 80.7609 20.9806C80.6331 21.2835 80.4 21.7122 80.2346 21.9265C80.0691 22.1334 79.7533 22.4512 79.5428 22.6137C79.3247 22.7837 78.9262 23.0275 78.6554 23.1605C78.3847 23.2936 77.9486 23.4562 77.6779 23.5301C77.4072 23.5966 76.9334 23.6704 76.6251 23.6926C76.3168 23.7148 75.8055 23.6926 75.4972 23.6483C75.1062 23.5892 74.7227 23.4635 74.2414 23.2345C73.685 22.9684 73.4293 22.7911 73.0007 22.3624C72.6999 22.0668 72.3314 21.6309 72.1886 21.387C72.0457 21.1431 71.8502 20.7367 71.7599 20.478C71.6622 20.2268 71.5644 19.776 71.5419 19.4804C71.5118 19.111 71.5343 18.7932 71.6171 18.4459C71.6847 18.1725 71.805 17.8177 71.8878 17.6551C71.9705 17.4926 72.166 17.2191 72.3239 17.0492C72.4743 16.8866 72.8052 16.6501 73.0533 16.5319C73.4067 16.3693 73.6098 16.325 74.0158 16.325C74.3316 16.325 74.67 16.3767 74.9182 16.4654C75.1287 16.5467 75.4521 16.7462 75.6325 16.9088C75.8055 17.0787 76.001 17.3226 76.0762 17.4483C76.1439 17.5813 76.2116 17.9285 76.2341 18.2094C76.2567 18.5641 76.2341 18.8375 76.1514 19.0962C76.0837 19.2957 75.9108 19.5913 75.7604 19.739C75.6175 19.8943 75.3393 20.1012 75.1438 20.1972C74.9407 20.2933 74.6024 20.4115 74.3918 20.4559C74.1737 20.5002 73.8654 20.5371 73.715 20.5371C73.5571 20.5371 73.2789 20.4854 73.0909 20.4263C72.9029 20.3672 72.745 20.3155 72.7375 20.3155C72.7224 20.3155 72.7149 20.3894 72.7149 20.478C72.7149 20.5741 72.7976 20.8106 72.8954 21.0175C73.0007 21.217 73.2263 21.52 73.4067 21.6752C73.5872 21.8378 73.8805 22.0373 74.0685 22.1112C74.2565 22.1925 74.655 22.2737 74.9708 22.2885C75.3468 22.3181 75.7077 22.2885 76.0612 22.1999C76.3544 22.1334 76.8207 21.956 77.1064 21.8082C77.3921 21.6604 77.7606 21.4091 77.9185 21.254C78.0764 21.1062 78.3471 20.6924 78.5276 20.3302C78.8434 19.6873 78.8434 19.6873 78.8434 18.8375C78.8434 18.0985 78.8209 17.9433 78.678 17.6699C78.5802 17.5 78.4374 17.33 78.3547 17.2857C78.2546 17.2364 78.1118 17.2364 77.926 17.2857C77.7681 17.3226 77.5501 17.3596 77.4373 17.3596C77.2493 17.3596 77.2117 17.3152 77.0989 16.9309C77.0237 16.7019 76.8432 16.325 76.7003 16.1033C76.5499 15.8816 76.2792 15.5713 76.0912 15.416C75.9108 15.2608 75.5273 15.017 75.234 14.8766C74.9407 14.7362 74.452 14.5736 74.1437 14.5071C73.7226 14.4184 73.309 14.3962 72.4893 14.4258C71.7073 14.448 71.226 14.5071 70.7974 14.6179C70.4666 14.7066 69.9928 14.8692 69.7447 14.9801C69.4965 15.0983 69.1055 15.32 68.8799 15.4751C68.6543 15.6378 68.3611 15.8447 68.2407 15.9407C68.1204 16.0442 67.955 16.2067 67.8873 16.3176C67.8121 16.4211 67.752 16.6058 67.752 16.7314C67.752 16.857 67.9024 17.2561 68.0828 17.6182C68.2558 17.9803 68.6844 18.7119 69.0228 19.244C69.3612 19.7686 69.7747 20.4706 69.9327 20.7958C70.1131 21.1505 70.3237 21.7713 70.4666 22.3476C70.6771 23.2122 70.6997 23.4562 70.7373 24.7493C70.7598 25.8579 70.7373 26.5081 70.4741 28.9246L70.6395 29.0945C70.7222 29.1906 70.9328 29.3015 71.0982 29.3385C71.2636 29.3828 71.5343 29.3976 71.6998 29.368C71.8652 29.3458 72.0908 29.2646 72.2036 29.198C72.3164 29.1315 72.4893 28.9394 72.5796 28.7768C72.6698 28.6142 72.8804 28.2964 73.0608 28.0748C73.2338 27.8531 73.6549 27.4023 74.0008 27.0698C74.3467 26.7446 74.8355 26.3234 75.0836 26.1386C75.3318 25.9539 75.8205 25.6213 76.174 25.3923C76.5274 25.1706 77.1666 24.8158 77.6027 24.6089C78.0388 24.402 78.5426 24.2173 78.7306 24.1878C78.9186 24.1582 79.1292 24.1582 79.2044 24.1878C79.3172 24.2247 79.3097 24.2838 79.069 24.7641C78.9262 25.0598 78.7382 25.5696 78.6479 25.8948C78.5126 26.3677 78.4825 26.7077 78.475 27.5945C78.4674 28.6586 78.475 28.7177 78.678 29.1241C78.7908 29.3606 79.0615 29.7375 79.2796 29.9665C79.5202 30.2178 79.8586 30.4691 80.1594 30.6168C80.4902 30.7794 80.8587 30.8902 81.2873 30.9494C81.7611 31.0159 82.0543 31.0233 82.4153 30.9642C82.686 30.9198 83.1071 30.7868 83.3552 30.676C83.6034 30.5577 83.9493 30.3361 84.1222 30.1735C84.2952 30.0183 84.4456 29.8261 84.4456 29.7522C84.4456 29.6857 84.3929 29.6118 84.3328 29.5897C84.2726 29.5675 84.0395 29.6119 83.829 29.6784C83.5733 29.767 83.2048 29.8114 82.7912 29.8114C82.3927 29.8114 82.0092 29.7596 81.7761 29.6857C81.5731 29.6192 81.2347 29.4123 81.0241 29.235C80.8211 29.0576 80.5429 28.7177 80.4075 28.4738C80.2722 28.2373 80.1067 27.7866 80.0466 27.4835C79.9616 27.1141 79.936 26.7938 79.9714 26.5229C80.0015 26.3012 80.0917 25.9317 80.1819 25.71C80.2872 25.4366 80.4677 25.178 80.7384 24.9119C80.9564 24.705 81.3324 24.439 81.5731 24.3282C81.8814 24.1878 82.1671 24.1286 82.6033 24.099C82.9416 24.0769 83.4154 24.0991 83.6936 24.1582C83.9643 24.2025 84.3328 24.3208 84.5208 24.402C84.7088 24.4907 85.0471 24.7419 85.2802 24.9711C85.5607 25.242 85.7893 25.5622 85.9645 25.9318C86.1149 26.2347 86.2804 26.6707 86.333 26.8924C86.3856 27.1141 86.4232 27.5649 86.4232 27.89C86.4157 28.326 86.3631 28.6364 86.2127 29.0724C86.0999 29.3976 85.8593 29.8853 85.6788 30.1587C85.4833 30.4617 85.19 30.7794 84.9569 30.9494C84.7388 31.1046 84.3929 31.3189 84.1824 31.4223C83.9793 31.5258 83.5507 31.681 83.2424 31.777C82.7687 31.9249 82.5205 31.9544 81.7009 31.947C80.8286 31.947 80.6557 31.9249 80.1218 31.7401C79.7909 31.6292 79.3322 31.4223 79.1066 31.2893C78.881 31.1563 78.5126 30.8681 78.287 30.6464C78.0614 30.4321 77.7756 30.107 77.6478 29.9222C77.5275 29.7375 77.3094 29.3606 77.1816 29.0724C77.0462 28.7842 76.8658 28.2743 76.7831 27.927C76.7003 27.5797 76.6251 27.2028 76.5875 26.885L76.2868 27.0993C76.1213 27.2175 75.8356 27.528 75.6476 27.7866C75.4671 28.0452 75.1889 28.5256 75.0385 28.8507C74.8881 29.1758 74.67 29.7079 74.5572 30.033C74.4444 30.3582 74.2715 30.9716 74.1737 31.4002C74.076 31.8288 73.9933 32.2648 73.9933 32.5825H66.3984C62.225 32.5825 58.8036 32.5677 58.8036 32.5456C58.8036 32.5234 58.7359 32.1539 58.6457 31.7105C58.563 31.2746 58.375 30.5873 58.2396 30.1809C58.1043 29.7744 57.8787 29.1906 57.7358 28.8876C57.5929 28.5847 57.3448 28.1339 57.1793 27.89C57.0064 27.6462 56.7206 27.321 56.5402 27.1732C56.3597 27.018 56.2018 26.8998 56.1868 26.9146C56.1792 26.922 56.1191 27.2028 56.0589 27.5353C55.9988 27.8752 55.8408 28.4221 55.7055 28.7546C55.5777 29.0945 55.307 29.5971 55.1114 29.8852C54.9235 30.1735 54.5625 30.5799 54.3219 30.7942C54.0737 31.0085 53.6902 31.2746 53.4646 31.3928C53.2391 31.511 52.818 31.6884 52.5247 31.7844C52.081 31.9249 51.8479 31.9544 51.0584 31.9544C50.3966 31.9544 49.9755 31.9101 49.6296 31.8214C49.3589 31.7475 48.8852 31.5701 48.5769 31.4223C48.1783 31.2302 47.87 31.0159 47.5241 30.6686C47.2158 30.3582 46.9451 30.0035 46.7947 29.7005C46.6594 29.4345 46.5015 29.0059 46.4413 28.7399C46.3736 28.4738 46.321 28.0452 46.321 27.7792C46.321 27.5132 46.3736 27.0993 46.4338 26.8555C46.4939 26.6116 46.6669 26.183 46.8022 25.8948C46.9526 25.5918 47.2233 25.2149 47.464 24.9785C47.682 24.7567 48.0355 24.4981 48.2385 24.402C48.449 24.3134 48.8025 24.1952 49.0281 24.1508C49.2536 24.1065 49.7274 24.0842 50.0808 24.099C50.5621 24.1286 50.8252 24.1804 51.1561 24.3282C51.3892 24.439 51.7577 24.6828 51.9682 24.875C52.1788 25.0745 52.4345 25.407 52.5472 25.6361C52.6976 25.9391 52.7503 26.1904 52.7728 26.6337C52.7954 27.055 52.7653 27.3579 52.6751 27.6684C52.6074 27.9122 52.4796 28.2447 52.3969 28.4073C52.3141 28.5699 52.1261 28.8433 51.9908 29.0133C51.8254 29.2201 51.5697 29.4123 51.2689 29.5527C50.923 29.7227 50.6448 29.7892 50.2312 29.8261C49.8176 29.8557 49.5394 29.8335 49.1784 29.7375C48.9077 29.6636 48.622 29.6045 48.5393 29.5971C48.4415 29.5897 48.3814 29.6414 48.3663 29.7375C48.3513 29.8335 48.4566 29.9961 48.7047 30.2178C48.9002 30.3952 49.2386 30.6168 49.4416 30.7055C49.6522 30.8016 50.0507 30.9124 50.344 30.9642C50.735 31.0233 51.0057 31.0233 51.4193 30.9642C51.7126 30.9198 52.1412 30.8164 52.3593 30.7351C52.5698 30.6538 52.9383 30.4469 53.1639 30.2696C53.3894 30.0922 53.6902 29.7892 53.8256 29.5823C53.9609 29.3828 54.1264 29.0354 54.194 28.8137C54.2768 28.5403 54.3144 28.1413 54.3144 27.5945C54.3068 27.1436 54.2467 26.5155 54.179 26.1904C54.1113 25.8652 53.9384 25.3332 53.788 25.008C53.6451 24.6828 53.5098 24.3577 53.4947 24.2838C53.4722 24.1804 53.5173 24.1582 53.7654 24.1582C53.9309 24.1582 54.2918 24.2395 54.5775 24.3429C54.8558 24.4464 55.337 24.6681 55.6453 24.838C55.9536 25.008 56.4951 25.3332 56.8485 25.5622C57.2019 25.7913 57.8035 26.2347 58.187 26.5451C58.563 26.8629 59.1044 27.3727 59.3751 27.6831C59.6458 28.0009 59.9767 28.4369 60.112 28.6586C60.2398 28.8802 60.4278 29.1241 60.5331 29.198C60.6384 29.2719 60.8715 29.3532 61.0595 29.3754C61.2475 29.405 61.5182 29.3902 61.6611 29.3458C61.8039 29.3015 61.9994 29.1906 62.2701 28.9246L62.1498 27.8161C62.0822 27.2028 62.0145 26.2273 61.9844 25.6361C61.9618 24.9933 61.9769 24.269 62.0295 23.8256C62.0746 23.4192 62.2175 22.6876 62.3378 22.1999C62.4657 21.69 62.6837 21.0618 62.8567 20.7219C63.0221 20.3968 63.4357 19.6947 63.7741 19.1701C64.12 18.638 64.526 17.9359 64.6839 17.596C64.8644 17.2117 64.9697 16.8792 64.9697 16.6945C64.9697 16.4876 64.9171 16.3397 64.7892 16.1919C64.6915 16.0811 64.2779 15.7708 63.8718 15.4973C63.3379 15.1426 62.9394 14.9357 62.4506 14.7805C62.0746 14.6622 61.5558 14.5218 61.2851 14.4849C61.0144 14.4406 60.4053 14.4036 59.9315 14.4036C59.33 14.4036 58.8938 14.448 58.5028 14.544C58.1945 14.6179 57.7358 14.7732 57.4877 14.8914C57.2395 15.0096 56.841 15.283 56.5928 15.5121C56.3522 15.7338 56.0815 16.0368 55.9988 16.1772C55.9085 16.3176 55.7657 16.6354 55.6754 16.8792C55.5476 17.2339 55.4724 17.33 55.337 17.3448C55.2393 17.3596 55.0287 17.3374 54.8708 17.2931C54.7204 17.2487 54.5249 17.2265 54.4422 17.2487C54.352 17.2709 54.2091 17.4483 54.0963 17.6699C53.9609 17.9359 53.8857 18.2242 53.8632 18.5789C53.8331 18.9262 53.8632 19.2514 53.9459 19.5765C54.0136 19.8426 54.179 20.2711 54.3144 20.5298C54.4572 20.8106 54.7054 21.1284 54.931 21.3279C55.134 21.5126 55.51 21.7565 55.7581 21.8747C56.0063 21.993 56.4274 22.1407 56.6981 22.2072C57.029 22.2885 57.3749 22.3181 57.7508 22.2959C58.1193 22.2737 58.4577 22.1999 58.7209 22.0816C58.9765 21.9708 59.2623 21.7639 59.4728 21.5348C59.6608 21.3279 59.8789 20.9953 59.9541 20.7958C60.0368 20.5889 60.0669 20.4041 60.0293 20.3672C59.9992 20.3376 59.8338 20.3672 59.6683 20.4337C59.4428 20.5224 59.2322 20.5445 58.8412 20.515C58.5479 20.4928 58.1118 20.4041 57.8636 20.3081C57.5553 20.1972 57.2997 20.0273 57.0515 19.7834C56.7958 19.5321 56.668 19.3179 56.5853 19.0371C56.5251 18.8301 56.4725 18.5345 56.4725 18.3941C56.4725 18.2537 56.5251 17.9581 56.5853 17.7438C56.653 17.5148 56.8109 17.2413 56.9838 17.0492C57.1342 16.8866 57.4651 16.6501 57.7132 16.5319C58.0667 16.3693 58.2697 16.325 58.6532 16.325C58.9239 16.325 59.2623 16.3545 59.4052 16.3988C59.548 16.4359 59.8413 16.5763 60.0443 16.7167C60.2549 16.8497 60.5331 17.1304 60.6685 17.33C60.8038 17.5295 60.9768 17.9064 61.0595 18.1725C61.1572 18.4754 61.2099 18.8597 61.2099 19.207C61.2099 19.51 61.1572 19.946 61.0971 20.1677C61.0369 20.3894 60.864 20.8254 60.7061 21.1284C60.503 21.5274 60.2474 21.8526 59.8187 22.2811C59.4503 22.6433 59.0217 22.9832 58.7284 23.1457C58.4577 23.2862 58.0366 23.4709 57.7884 23.5374C57.4501 23.6409 57.0966 23.6704 56.3973 23.6704C55.5927 23.6631 55.3671 23.6335 54.8558 23.4709C54.5249 23.3675 54.0512 23.1605 53.803 23.0127C53.5549 22.865 53.1413 22.5398 52.8781 22.2885C52.6224 22.0373 52.3141 21.6457 52.1938 21.4239C52.0735 21.2022 51.8855 20.7146 51.7727 20.3524C51.6599 19.9534 51.5622 19.4065 51.5321 18.9853C51.502 18.4976 51.5246 18.0985 51.6073 17.6921C51.6674 17.367 51.7878 16.9162 51.878 16.6945C51.9607 16.4728 52.1938 16.0368 52.3969 15.7338C52.5999 15.4308 52.9458 15.0022 53.1714 14.7805C53.397 14.5588 53.7805 14.2411 54.0286 14.0637C54.2768 13.8938 54.7655 13.6129 55.119 13.4503C55.4724 13.2878 56.0138 13.0883 56.3221 13.007C56.6304 12.9183 57.2696 12.8 57.7358 12.7409C58.1945 12.6818 58.7735 12.6301 59.0066 12.6301C59.2472 12.6301 59.7811 12.6818 60.1947 12.7409C60.6083 12.8074 61.2475 12.9552 61.6235 13.0809C61.9994 13.2065 62.601 13.4577 62.977 13.6425C63.353 13.8272 63.9169 14.1524 64.2403 14.3593C64.7967 14.714 64.8343 14.7288 64.9547 14.6105C65.0674 14.4923 65.075 14.448 64.9772 14.1672C64.9246 13.9898 64.7516 13.5981 64.5937 13.2952C64.4358 12.9921 64.0974 12.4232 63.8342 12.0389C63.5635 11.6399 63.0747 11.056 62.6837 10.6718C62.2777 10.2727 61.849 9.93281 61.6235 9.82936C61.4129 9.72591 61.1121 9.63724 60.9467 9.61507C60.7061 9.59291 60.6008 9.62246 60.3978 9.77764C60.2022 9.93281 60.1571 10.0215 60.1571 10.2653C60.1571 10.4279 60.2022 10.7087 60.2474 10.8861C60.3301 11.1595 60.3301 11.226 60.2323 11.3295C60.1646 11.4108 60.0067 11.4551 59.8187 11.4551C59.6533 11.4477 59.3149 11.4108 59.0668 11.3665C58.8186 11.3221 58.4727 11.2186 58.2923 11.1447C58.1193 11.0634 57.796 10.8417 57.5779 10.6422C57.3598 10.4353 57.0891 10.0954 56.9688 9.85153C56.7808 9.482 56.7507 9.33421 56.7507 8.86131C56.7582 8.50655 56.8184 8.13709 56.9237 7.82668C57.0139 7.56067 57.2169 7.17641 57.3673 6.96949C57.5253 6.76258 57.8185 6.48916 58.0215 6.36352C58.2246 6.23051 58.5554 6.07533 58.766 6.0162C58.969 5.95709 59.3751 5.90536 59.6683 5.90536C59.9616 5.90536 60.3827 5.95709 60.6083 6.02359C60.8339 6.08272 61.0745 6.11227 61.1347 6.0901C61.2324 6.05316 61.24 5.95709 61.1723 5.4398C61.1347 5.10726 61.1046 4.58258 61.1121 4.2796C61.1196 3.91012 61.1798 3.5554 61.3001 3.20808C61.3979 2.91988 61.6159 2.49127 61.7738 2.2548C61.9393 2.01093 62.2927 1.61928 62.5634 1.37541C62.8943 1.08721 63.3003 0.821172 63.8041 0.577312C64.2177 0.377787 64.7742 0.170873 65.0449 0.111754C65.3156 0.0526359 65.9097 0.000907295 66.3608 0.000907295ZM65.0449 3.14897C64.902 3.23764 64.6539 3.43717 64.5035 3.59235C64.3531 3.74754 64.1425 4.03574 64.0373 4.24265C63.932 4.44218 63.8117 4.79689 63.759 5.01859C63.7064 5.26983 63.6838 5.75756 63.7064 6.27485L63.744 7.12468C65.7743 12.5931 66.3834 14.1524 66.4059 14.1228C66.4285 14.0933 67.015 12.5266 67.7144 10.6349C68.8198 7.64195 68.9927 7.1099 69.0529 6.53349C69.1055 6.06055 69.1055 5.70584 69.0378 5.31418C68.9927 5.01119 68.8498 4.55302 68.7295 4.29438C68.6017 4.04313 68.3611 3.69581 68.1881 3.52584C68.0076 3.36327 67.6993 3.14897 67.4888 3.0529C67.2632 2.94944 66.9098 2.86815 66.5864 2.84598C66.2781 2.82381 65.9021 2.84598 65.6841 2.89771C65.481 2.94944 65.1878 3.06029 65.0449 3.14897ZM65.5788 19.3696C65.3682 19.7464 65.0825 20.3524 64.9321 20.7219C64.7817 21.084 64.5636 21.7491 64.4433 22.1999C64.3155 22.695 64.2102 23.3305 64.1801 23.8256C64.1501 24.2912 64.1651 24.9341 64.2102 25.3405C64.2553 25.7248 64.3456 26.2421 64.4057 26.4859C64.4734 26.7299 64.6539 27.1806 64.8043 27.4835C64.9847 27.8309 65.2479 28.193 65.5337 28.4812C65.7818 28.7251 66.0751 28.9541 66.1954 28.9837C66.3307 29.0182 66.4911 28.9911 66.6767 28.9024C66.827 28.8359 67.1203 28.5921 67.3309 28.363C67.5414 28.1339 67.8272 27.7349 67.955 27.4762C68.0903 27.2175 68.2708 26.7372 68.3611 26.412C68.4663 26.013 68.534 25.4957 68.5566 24.8232C68.5791 24.2764 68.5641 23.5448 68.519 23.1975C68.4738 22.8502 68.346 22.2664 68.2407 21.9043C68.1355 21.5348 67.8948 20.8919 67.7068 20.4633C67.5264 20.0347 67.1654 19.3326 66.9022 18.8892C66.6466 18.4533 66.4135 18.0985 66.3909 18.0985C66.3608 18.0985 66.248 18.2316 66.1428 18.3941C66.0375 18.5567 65.7818 19.0001 65.5788 19.3696Z" fill="#ACACAE"/>
<path fill-rule="evenodd" clip-rule="evenodd" d="M1.57912 39.4033C1.6468 39.5141 1.79719 39.5289 4.32379 39.5289L8.09865 46.1945C10.1741 49.8673 11.9262 52.934 11.9938 53.0153C12.0916 53.1483 12.0991 52.5498 12.0841 47.2513C12.069 42.943 12.0389 41.2656 11.9788 41.0808C11.9262 40.9404 11.8058 40.7039 11.7081 40.5635C11.6178 40.4231 11.4223 40.231 11.2795 40.1349C11.1366 40.0462 10.9035 39.9723 10.7681 39.9723C10.5501 39.9723 10.5275 39.9502 10.5275 39.5289H14.0617V39.7507C14.0617 39.9502 14.0392 39.9723 13.8136 39.9723C13.6857 39.9723 13.4602 40.0388 13.3248 40.1201C13.197 40.2014 13.0315 40.3787 12.9639 40.5118C12.8887 40.6374 12.7984 40.8517 12.7533 40.9699C12.7007 41.1177 12.6631 43.4086 12.5954 54.9367H10.1966L6.09091 47.8942C3.83502 44.022 1.97015 40.8813 1.93255 40.9108C1.90247 40.9404 1.88743 43.682 1.89495 46.9926C1.91751 52.7936 1.92503 53.0301 2.0679 53.4144C2.15062 53.6361 2.33109 53.939 2.45892 54.0943C2.66195 54.3307 2.77475 54.3972 3.12065 54.4564C3.51167 54.5229 3.53423 54.545 3.49663 54.9367L0 54.9737V54.7519C0 54.5524 0.0300786 54.5229 0.278227 54.4859C0.436139 54.4563 0.646689 54.3825 0.751964 54.3086C0.857239 54.2421 1.01515 54.0203 1.10539 53.8208C1.19562 53.6213 1.3009 53.2445 1.34602 52.9784C1.39865 52.668 1.42873 50.3033 1.42873 39.9723H0.751964C0.375982 39.9723 0.0601571 39.9428 0.0375982 39.8984C0.0150393 39.8615 0.0150393 39.758 0.0375982 39.6768C0.0751964 39.5437 0.135354 39.5289 0.789562 39.5289C1.42121 39.5289 1.50393 39.5141 1.50393 39.4033C1.51145 39.2777 1.51145 39.2777 1.57912 39.4033ZM118.961 39.5289H124.525V39.9723H123.924C123.57 39.9723 123.322 40.0019 123.322 40.0462C123.322 40.0832 124.247 41.5833 125.375 43.3716C126.495 45.1674 127.435 46.6306 127.458 46.6306C127.48 46.6306 128.247 45.4851 129.165 44.0959C130.082 42.6992 130.909 41.3764 130.992 41.1547C131.097 40.8887 131.143 40.667 131.112 40.5118C131.082 40.3344 131 40.2383 130.827 40.1497C130.691 40.0832 130.398 40.0093 130.18 39.9797C129.812 39.9354 129.789 39.9206 129.789 39.5289H134V39.7359C134 39.9206 133.97 39.9428 133.647 39.9797C133.444 40.0093 133.12 40.1127 132.91 40.2162C132.699 40.3196 132.316 40.63 132.037 40.9034C131.767 41.1842 131.391 41.6277 131.203 41.8937C131.015 42.1597 130.135 43.4751 127.608 47.2513L127.646 54.4933L129.037 54.5302V54.9737H123.548V54.5302H124.976V47.5469L120.126 39.9649L118.961 39.9723V39.5289ZM65.2705 59.3263L66.7368 59.3706L69.692 66.8342C71.3163 70.943 72.6548 74.3054 72.6623 74.3128C72.6698 74.3202 72.9781 74.3276 73.3541 74.335C73.7301 74.3424 74.3467 74.3424 75.422 74.335V59.777H73.9933L74.0309 59.3706L77.2267 59.3484C78.9863 59.341 80.8813 59.3632 81.4377 59.4001C81.9942 59.4445 82.7236 59.5479 83.0544 59.6292C83.3853 59.7105 83.9042 59.8952 84.2049 60.0356C84.5433 60.1982 84.9268 60.4643 85.2426 60.7598C85.5961 61.085 85.8141 61.3658 85.9946 61.7353C86.145 62.0457 86.2879 62.4743 86.3405 62.8068C86.4007 63.228 86.4007 63.4867 86.3405 63.8783C86.2954 64.1665 86.145 64.6099 86.0097 64.876C85.8593 65.179 85.5886 65.5337 85.2727 65.8366C84.9343 66.1692 84.5734 66.4204 84.1072 66.6643C83.7312 66.849 83.2875 67.0486 83.1071 67.1077C82.9341 67.1594 82.7912 67.2185 82.7912 67.2407C82.7912 67.2629 83.0544 67.3959 83.3778 67.5363C83.8139 67.7284 84.0771 67.9058 84.4456 68.2753C84.7464 68.5708 85.0171 68.9256 85.1524 69.199C85.2727 69.4429 85.4306 69.8936 85.5058 70.1966C85.5961 70.5218 85.6788 71.2238 85.7164 71.8963C85.754 72.5983 85.8141 73.123 85.8818 73.2634C85.942 73.3816 86.0698 73.522 86.1751 73.5664C86.2879 73.6181 86.4232 73.6329 86.5135 73.5959C86.5962 73.5664 86.724 73.4629 86.7917 73.3668C86.8669 73.2634 86.9496 72.9678 86.9797 72.65C87.0398 72.1328 87.0474 72.118 87.2504 72.118C87.4309 72.118 87.4534 72.1476 87.4534 72.3618C87.4534 72.4875 87.4158 72.82 87.3782 73.1008C87.3331 73.3742 87.2203 73.7512 87.1226 73.9507C87.0248 74.1429 86.8594 74.3719 86.7616 74.4606C86.6714 74.5493 86.4308 74.7044 86.2352 74.8079C85.9345 74.9704 85.7765 75 85.2953 75C84.799 75 84.6486 74.9631 84.3328 74.7931C84.1297 74.6823 83.8515 74.4458 83.7086 74.2611C83.5733 74.0764 83.4079 73.7659 83.3477 73.559C83.28 73.3373 83.2048 72.6205 83.1672 71.7485C83.1296 70.9578 83.0469 70.0636 82.9792 69.7754C82.9191 69.4799 82.7837 69.0586 82.686 68.8517C82.5807 68.6374 82.3701 68.3344 82.2122 68.1792C82.0543 68.024 81.7911 67.8319 81.6257 67.758C81.4603 67.6841 81.1068 67.5806 80.8361 67.5437C80.5654 67.4993 79.8285 67.4624 78.0539 67.4624V74.335H79.4826V74.7783H68.4287V74.335H69.1055C69.4815 74.335 69.7823 74.3276 69.7823 74.3202C69.7823 74.3054 69.2634 72.9826 67.4813 68.46L62.413 68.4231L62.3077 68.667C62.2476 68.7926 61.8866 69.7533 61.5107 70.7878C60.9392 72.3323 60.8113 72.7535 60.8038 73.1156C60.8038 73.4333 60.8414 73.6255 60.9467 73.8029C61.0294 73.936 61.2324 74.1133 61.3979 74.1872C61.5783 74.2759 61.8566 74.335 62.0972 74.335C62.4807 74.335 62.4882 74.335 62.4882 74.7783H58.3524V74.5567C58.3524 74.3498 58.375 74.335 58.6156 74.335C58.7585 74.335 59.0066 74.2759 59.157 74.2094C59.3074 74.1355 59.5255 73.9581 59.6458 73.8177C59.7586 73.6772 59.9541 73.3742 60.0744 73.1526C60.1947 72.9309 61.3753 69.8198 62.6988 66.2431C64.0222 62.6665 65.1502 59.644 65.1878 59.5332L65.2705 59.3263ZM78.0539 67.019C80.4902 67.019 80.994 66.9895 81.3249 66.9008C81.5731 66.8416 81.9566 66.6865 82.1822 66.5534C82.4002 66.4204 82.6935 66.184 82.8288 66.0214C82.9642 65.8588 83.1447 65.5854 83.2349 65.4081C83.3251 65.2381 83.4455 64.8907 83.5056 64.6321C83.5658 64.3809 83.6184 63.8414 83.6184 63.4349C83.6184 63.0285 83.5658 62.489 83.5056 62.2304C83.4455 61.9792 83.3101 61.6023 83.2048 61.4028C83.0995 61.1959 82.9191 60.9225 82.8063 60.7894C82.686 60.6564 82.4228 60.4495 82.2198 60.3165C82.0167 60.1909 81.6633 60.0282 81.4377 59.9617C81.1369 59.8657 80.6331 59.8213 79.5503 59.7918L78.0764 59.7548L78.0539 67.019ZM63.6237 65.0976C63.0371 66.6643 62.5709 67.9501 62.5785 67.9649C62.5935 67.9723 63.6538 67.9723 64.9396 67.9649L67.2857 67.9428C65.4585 63.2871 64.9095 61.9127 64.887 61.8905C64.8719 61.861 64.8118 61.9349 64.7667 62.0457C64.7215 62.1639 64.2027 63.5384 63.6237 65.0976ZM106.215 38.7161C106.373 38.7161 106.403 38.7604 106.441 39.0117C106.465 39.2087 106.533 39.3442 106.644 39.4181C106.794 39.5141 107.531 39.5289 112.268 39.5363C116.547 39.5363 117.75 39.5141 117.855 39.4402C117.931 39.3885 118.021 39.2112 118.043 39.0486C118.088 38.7974 118.126 38.753 118.51 38.7161V43.7411H118.284C118.088 43.7411 118.058 43.7189 118.058 43.5416C118.058 43.4308 117.991 43.0391 117.915 42.6696C117.84 42.3075 117.682 41.8124 117.562 41.5685C117.427 41.2951 117.186 40.9995 116.93 40.7704C116.697 40.5635 116.344 40.3418 116.118 40.2679C115.9 40.1866 115.494 40.0906 115.216 40.0536C114.938 40.0093 114.464 39.9797 113.622 39.9723V54.5302H114.975V54.9737H109.561V54.5302H110.915V39.9723L110.291 39.9797C109.952 39.9797 109.418 40.0241 109.11 40.0758C108.802 40.1349 108.358 40.2605 108.132 40.364C107.892 40.4749 107.576 40.7039 107.38 40.9108C107.185 41.1177 106.952 41.4799 106.839 41.7533C106.726 42.0119 106.598 42.4627 106.553 42.7435C106.508 43.0317 106.456 43.3716 106.433 43.5046C106.403 43.7115 106.373 43.7411 105.989 43.7042L105.974 41.3025C105.967 39.9871 105.974 38.8639 105.997 38.8122C106.012 38.7604 106.11 38.7161 106.215 38.7161ZM20.2504 39.5289L21.7618 39.5659L24.7171 47.0296C26.3413 51.1383 27.6798 54.5007 27.6873 54.5155C27.7024 54.5229 28.2889 54.5302 29.0033 54.5302C29.7176 54.5302 30.3342 54.5155 30.3793 54.4933C30.4245 54.4711 30.4545 51.9734 30.4545 39.9723H29.0258V39.5289H34.44V39.9723H33.0864L33.124 54.4933L34.44 54.5302V54.9737H31.7855C29.7477 54.9811 29.1161 54.9589 29.0409 54.8849C28.9657 54.811 28.9431 54.811 28.9506 54.8849C28.9506 54.9589 28.349 54.9737 23.4613 54.9737V54.5302H24.0854C24.4313 54.5302 24.7246 54.5155 24.7471 54.4933C24.7622 54.4785 24.2659 53.1557 22.5063 48.6553H17.3553L16.6034 50.6876C16.092 52.0916 15.8439 52.8601 15.8213 53.1631C15.7912 53.5031 15.8138 53.6656 15.9191 53.8651C15.9943 53.9981 16.1371 54.1756 16.2424 54.2495C16.3477 54.3307 16.6635 54.4194 16.9718 54.4637C17.5132 54.5302 17.5208 54.5376 17.5208 54.9737L13.3474 54.9367L13.3248 54.7371C13.3098 54.545 13.3323 54.5302 13.6632 54.4933C13.8587 54.4711 14.1294 54.3898 14.2648 54.3086C14.4001 54.2273 14.6182 54.0203 14.746 53.8504C14.8738 53.673 15.0694 53.3331 15.1822 53.0892C15.2949 52.8454 16.4831 49.6973 17.814 46.0837L20.2504 39.5289ZM17.6035 48.0938C17.6035 48.1603 18.1148 48.1824 19.927 48.1824C21.7468 48.1824 22.2581 48.1603 22.2581 48.0938C22.2581 48.042 21.7844 46.7857 21.1979 45.3004C20.6189 43.815 20.0925 42.4775 20.0323 42.3297C19.9797 42.1745 19.9045 42.0488 19.8744 42.0488C19.8443 42.0488 19.318 43.3864 18.7089 45.027C18.0998 46.6601 17.6035 48.042 17.6035 48.0938ZM34.9663 39.5363H40.3805V39.9797H38.9517L38.9893 54.5007L40.3429 54.5229C41.0873 54.5376 42.0724 54.5155 42.5236 54.4711C43.0424 54.4268 43.5237 54.3381 43.8019 54.2347C44.0501 54.146 44.3884 53.9464 44.5539 53.7986C44.7193 53.6509 44.99 53.2814 45.1479 52.9784C45.3134 52.6754 45.5239 52.1138 45.6217 51.7295C45.7194 51.3452 45.8021 50.9536 45.8021 50.8649C45.8021 50.7245 45.8397 50.695 46.2458 50.695V54.9811H34.9663V54.5376H36.3199V39.9797H34.9663V39.5363ZM50.8478 39.5289L54.7355 39.5585C58.4502 39.5881 58.6457 39.5955 59.2548 39.7507C59.6082 39.8393 60.1496 40.0388 60.4579 40.1866C60.7963 40.3492 61.1948 40.6227 61.4505 40.8665C61.7212 41.1251 61.9618 41.4503 62.1047 41.7533C62.2325 42.0193 62.3754 42.4184 62.4281 42.64C62.4732 42.8617 62.4957 43.3273 62.4732 43.6746C62.4506 44.0515 62.3754 44.4653 62.2852 44.7092C62.1949 44.9309 61.9769 45.3151 61.7889 45.5591C61.6009 45.8029 61.2776 46.1354 61.0595 46.298C60.8414 46.4606 60.4053 46.7192 60.0894 46.867C59.7511 47.0296 59.5631 47.1552 59.6308 47.1774C59.6984 47.1995 59.9466 47.2661 60.1947 47.34C60.4429 47.4065 60.8715 47.5617 61.1347 47.6947C61.4054 47.8203 61.834 48.1233 62.1047 48.3672C62.4431 48.6775 62.6612 48.9658 62.8416 49.3278C63.0146 49.6825 63.1199 50.0225 63.165 50.3993C63.2026 50.7319 63.2026 51.1457 63.165 51.4339C63.1199 51.7074 62.9845 52.1359 62.8416 52.4316C62.6461 52.8158 62.4506 53.067 62.0671 53.4144C61.7814 53.673 61.3001 54.0129 60.9843 54.1682C60.676 54.3233 60.1346 54.5376 59.7811 54.6337C59.4352 54.7371 58.8412 54.8554 58.4652 54.8997C58.0667 54.9515 56.3898 54.9811 50.8328 54.9811V54.5376H52.2615V39.9797H50.8328L50.8478 39.5289ZM54.9009 47.0074C57.1793 47.0074 57.4576 46.9779 57.8561 46.8522C58.1118 46.771 58.4426 46.6158 58.5855 46.5049C58.7284 46.3941 58.9089 46.2389 58.9841 46.1576C59.0593 46.0763 59.2021 45.8472 59.2999 45.6551C59.4052 45.4629 59.5405 45.1156 59.6007 44.8792C59.6683 44.6279 59.7135 44.1254 59.7135 43.645C59.7135 43.1943 59.6834 42.6622 59.6458 42.4627C59.6082 42.2558 59.5104 41.9084 59.4202 41.6868C59.3375 41.4503 59.1194 41.1103 58.9089 40.8813C58.7134 40.6596 58.3975 40.4084 58.2095 40.3122C58.0215 40.2236 57.6907 40.1127 57.4801 40.0684C57.2621 40.0241 56.5928 39.9871 55.9912 39.9871H54.9009V47.0074ZM54.9009 54.545C56.7958 54.5376 57.5628 54.5081 57.8336 54.4637C58.1043 54.4194 58.5254 54.2938 58.7735 54.183C59.0217 54.0647 59.3676 53.8282 59.548 53.6435C59.7285 53.4661 59.9541 53.1557 60.0594 52.9562C60.1571 52.7493 60.2925 52.3502 60.3526 52.0694C60.4128 51.7812 60.4654 51.3009 60.4654 50.9979C60.4654 50.6876 60.4203 50.222 60.3602 49.9634C60.3075 49.6973 60.1646 49.2835 60.0443 49.047C59.924 48.8031 59.6684 48.4706 59.4728 48.2859C59.2698 48.1085 58.9314 47.8868 58.7209 47.7833C58.5028 47.6873 58.1043 47.5691 57.8336 47.5247C57.5628 47.4804 56.7958 47.4508 56.1266 47.4508H54.9009V54.545ZM63.7741 39.5363L74.8655 39.5807V43.7189H74.6776C74.5121 43.7189 74.482 43.6672 74.3993 43.3125C74.3467 43.0835 74.2339 42.6696 74.1437 42.3888C74.0534 42.1006 73.903 41.7089 73.8053 41.5168C73.7075 41.3247 73.497 41.0217 73.3315 40.8517C73.1661 40.6744 72.8578 40.4527 72.6021 40.3418C72.3615 40.231 71.9404 40.1053 71.6697 40.061C71.399 40.0167 70.4139 39.9871 67.7595 39.9871V47.0074L69.1732 46.9852C70.4515 46.9631 70.6169 46.9483 70.9553 46.7931C71.1659 46.7045 71.4291 46.5345 71.5419 46.4311C71.6622 46.3201 71.8201 46.1059 71.9028 45.9507C71.978 45.7955 72.0983 45.4408 72.1585 45.16C72.2637 44.6574 72.2788 44.6427 72.6848 44.6797V49.8525L72.4818 49.8673C72.2938 49.8821 72.2637 49.8599 72.2262 49.6086C72.2036 49.4534 72.151 49.217 72.1058 49.0766C72.0607 48.9287 71.9705 48.6997 71.8953 48.5593C71.8201 48.4115 71.6246 48.175 71.4516 48.0198C71.2712 47.8572 70.9779 47.6947 70.7523 47.6208C70.4891 47.5469 69.9101 47.4878 67.7595 47.4139V54.545L69.5492 54.5376C70.5267 54.5376 71.5569 54.5081 71.8427 54.4637C72.1209 54.4268 72.542 54.3233 72.7826 54.2347C73.0383 54.1386 73.3315 53.9464 73.5195 53.7691C73.685 53.6065 73.9105 53.2888 74.0158 53.067C74.1211 52.838 74.279 52.439 74.3617 52.1803C74.4444 51.9143 74.5572 51.5004 74.6174 51.2565C74.7001 50.8945 74.7452 50.8132 74.8655 50.8132C75.0159 50.8132 75.0159 50.8649 75.0535 54.9884H63.7741V54.545H65.1276V39.9871H63.7741V39.5363ZM82.8965 39.5289L84.3929 39.5733L90.2959 54.5007L91.5967 54.5376V54.9811H86.1074V54.5376H86.7466C87.2053 54.5376 87.3857 54.5081 87.3857 54.4416C87.3857 54.3898 86.8819 53.067 85.1449 48.6627H80.0015L79.2495 50.695C78.678 52.2394 78.49 52.838 78.4599 53.2074C78.4299 53.5917 78.4524 53.7395 78.5727 53.9464C78.6554 54.0869 78.8359 54.2642 78.9713 54.3307C79.1141 54.4046 79.4375 54.4859 79.7007 54.5155C80.1443 54.5672 80.1669 54.582 80.1669 54.9811H75.9559V54.7593C75.9559 54.5598 75.9784 54.5376 76.1965 54.5302C76.3319 54.5302 76.58 54.4711 76.7455 54.3972C76.9109 54.3233 77.159 54.1386 77.2869 53.9908C77.4222 53.843 77.6478 53.4809 77.7907 53.1853C77.926 52.8897 79.1367 49.6973 80.4677 46.0911L82.8965 39.5289ZM80.197 48.1455C83.7838 48.175 84.8516 48.1603 84.8817 48.1455C84.9193 48.1233 84.4155 46.7414 83.7763 45.0713C83.1371 43.4086 82.5732 42.0488 82.5356 42.0488C82.4905 42.0488 81.949 43.416 81.3249 45.0935L80.197 48.1455ZM90.7771 39.5363H96.1912V39.9797H94.8377L94.8528 45.2486C94.8753 50.4363 94.8753 50.5176 95.0407 50.9905C95.131 51.2565 95.334 51.6704 95.4919 51.9143C95.6573 52.1581 95.9506 52.4981 96.1536 52.668C96.3567 52.8454 96.7327 53.0818 96.9808 53.2C97.229 53.3183 97.6952 53.4735 98.011 53.5326C98.3343 53.5991 98.778 53.6509 99.0111 53.6509C99.2367 53.6509 99.6879 53.5991 100.004 53.5326C100.342 53.4661 100.808 53.3036 101.109 53.1483C101.417 52.9858 101.778 52.7124 102.011 52.4685C102.222 52.2468 102.485 51.8773 102.598 51.6556C102.711 51.4339 102.854 51.0497 102.914 50.8058C103.012 50.4289 103.034 49.6677 103.034 45.8916C103.034 42.4258 103.012 41.3469 102.936 41.0882C102.884 40.9034 102.756 40.6448 102.651 40.5044C102.553 40.364 102.335 40.1866 102.169 40.1127C102.004 40.0462 101.726 39.9797 101.545 39.9797C101.244 39.9797 101.229 39.9723 101.229 39.5363H105.365V39.758C105.365 39.9723 105.35 39.9797 105.042 39.9797C104.861 39.9797 104.576 40.0536 104.388 40.1423C104.109 40.2827 104.004 40.3935 103.598 41.199L103.553 45.8916C103.515 50.1112 103.493 50.6358 103.372 51.0644C103.297 51.3304 103.162 51.7147 103.072 51.9143C102.981 52.1212 102.771 52.4833 102.605 52.7271C102.44 52.971 102.064 53.3848 101.771 53.6509C101.485 53.9169 101.064 54.2421 100.838 54.3751C100.62 54.5007 100.132 54.715 99.7631 54.848C99.169 55.0549 98.9585 55.0845 98.0712 55.1141C97.2891 55.1436 96.9131 55.1215 96.4544 55.0254C96.1236 54.9515 95.5446 54.7519 95.1761 54.5746C94.8001 54.3972 94.3113 54.1017 94.0857 53.9095C93.8526 53.7248 93.5218 53.3996 93.3488 53.1853C93.1684 52.9784 92.8901 52.535 92.7322 52.2098C92.5743 51.8847 92.3863 51.3748 92.3262 51.0866C92.2209 50.621 92.2058 49.823 92.2058 39.9797H90.7771V39.5363ZM45.3209 41.6203C45.569 41.6203 45.7044 41.635 45.6217 41.6572C45.5389 41.672 45.3434 41.7237 45.1855 41.7607C45.0351 41.7976 44.787 41.938 44.6366 42.071C44.4712 42.2189 44.3283 42.4479 44.2531 42.677C44.1704 42.9282 44.1478 43.1721 44.1779 43.4529C44.208 43.6746 44.2907 43.9776 44.3659 44.118C44.4411 44.2584 44.6516 44.4727 45.1705 44.8127L44.8697 44.894C44.7043 44.9383 44.4636 45.0344 44.3433 45.0935C44.2155 45.16 44.0275 45.3078 43.9147 45.426C43.8019 45.5369 43.644 45.7807 43.5613 45.9655C43.456 46.1871 43.4034 46.4532 43.4034 46.7783C43.4034 47.133 43.4485 47.3548 43.5838 47.6282C43.6816 47.8351 43.8696 48.1012 44.0125 48.2342C44.1553 48.3672 44.4336 48.5519 44.6441 48.6553C45.0126 48.8401 45.0126 48.8401 44.7719 48.8475C44.6366 48.8475 44.2832 48.7736 43.9824 48.6775C43.6816 48.5814 43.2755 48.4041 43.08 48.2711C42.8845 48.1381 42.6439 47.8942 42.5386 47.7242C42.4333 47.5469 42.3281 47.2439 42.3055 47.037C42.2754 46.8375 42.298 46.5271 42.3431 46.3571C42.3882 46.1724 42.5461 45.9064 42.7191 45.729C42.877 45.5517 43.1703 45.3225 43.3733 45.2117C43.5763 45.1009 43.9448 44.9605 44.1929 44.894C44.4411 44.8348 44.6591 44.7683 44.6817 44.7462C44.6967 44.7314 44.5163 44.6574 44.2681 44.5835C43.9749 44.5023 43.7192 44.3619 43.5387 44.1919C43.3733 44.0367 43.2379 43.815 43.1853 43.6229C43.1251 43.3864 43.1251 43.2017 43.1853 42.9208C43.253 42.6179 43.3507 42.4553 43.5989 42.2189C43.832 41.9897 44.0576 41.8641 44.396 41.7607C44.6591 41.6794 45.0727 41.6129 45.3209 41.6203ZM47.3211 42.5292C47.3512 42.6105 47.3813 42.7878 47.3813 42.9208C47.3888 43.0909 47.3211 43.2239 47.1632 43.379C47.0429 43.5046 46.8774 43.6007 46.7872 43.6007C46.7045 43.6007 46.5616 43.5638 46.4639 43.5194C46.3736 43.4677 46.2684 43.3938 46.2383 43.3495C46.2082 43.3051 46.1856 43.1574 46.1856 43.0317C46.1856 42.8543 46.2383 42.7435 46.3887 42.6327C46.5466 42.5144 46.6594 42.4923 46.8774 42.5218C47.0679 42.5514 47.1807 42.5366 47.2158 42.4775C47.2459 42.411 47.2835 42.4258 47.3211 42.5292ZM48.3738 43.6007C48.4942 43.6007 48.6596 43.6377 48.7423 43.6746C48.825 43.7189 48.9228 43.8594 48.9679 43.9924C49.013 44.118 49.0281 44.3101 49.0055 44.4136C48.9829 44.517 48.9153 44.65 48.8476 44.7092C48.7649 44.7905 48.7348 44.7905 48.7348 44.7314C48.7423 44.6648 48.6596 44.65 48.4566 44.6797C48.2385 44.7166 48.1332 44.6871 47.9903 44.5762C47.8475 44.4653 47.8024 44.3545 47.8024 44.155C47.8024 43.9555 47.8475 43.8446 47.9753 43.7411C48.0806 43.6672 48.2535 43.6007 48.3738 43.6007ZM48.0054 45.5664C48.1407 45.5886 48.4265 45.6921 48.6446 45.7881C48.8626 45.8842 49.1108 46.0541 49.1935 46.1724C49.2837 46.2832 49.3815 46.4902 49.4191 46.6306C49.4567 46.771 49.4567 47.0074 49.4266 47.1478C49.3965 47.2883 49.3138 47.5099 49.2461 47.6282C49.186 47.7538 49.0356 47.9385 48.9153 48.042C48.8025 48.1455 48.5994 48.3007 48.4791 48.3819C48.3513 48.4706 48.043 48.6036 47.7798 48.6923C47.5241 48.781 47.2158 48.8475 47.103 48.8401C46.9226 48.8401 46.9451 48.8179 47.276 48.6701C47.479 48.5741 47.7648 48.3819 47.9001 48.2489C48.043 48.1085 48.2235 47.8646 48.3062 47.7021C48.4114 47.4952 48.4566 47.2587 48.4566 46.9261C48.4566 46.6527 48.4114 46.3497 48.3438 46.2241C48.2836 46.1059 48.1257 45.9137 47.9979 45.8029C47.87 45.6847 47.7648 45.5812 47.7572 45.5591C47.7572 45.5443 47.87 45.5443 48.0054 45.5664ZM45.6668 46.1871C45.7044 46.1871 45.7345 46.2389 45.7345 46.298C45.7345 46.3867 45.7721 46.3941 45.9375 46.3275C46.1029 46.2684 46.2007 46.2758 46.3887 46.3645C46.524 46.4311 46.6519 46.5567 46.6819 46.6527C46.7045 46.7414 46.7045 46.904 46.6819 47.0222C46.6519 47.1478 46.5466 47.2661 46.3887 47.34C46.2533 47.4065 46.0728 47.4361 45.9751 47.4139C45.8848 47.3917 45.742 47.3031 45.6593 47.2217C45.554 47.1182 45.5089 46.9779 45.5089 46.7414C45.5089 46.5567 45.5239 46.3571 45.554 46.298C45.5765 46.2389 45.6292 46.1871 45.6668 46.1871ZM49.7875 59.341C51.5095 59.341 53.2992 59.378 53.7805 59.4149C54.2542 59.4519 54.8859 59.5553 55.1866 59.6366C55.4874 59.7179 55.9311 59.8804 56.1642 59.9987C56.4048 60.117 56.7432 60.3165 56.9162 60.4421C57.0966 60.5677 57.3749 60.8485 57.5328 61.0629C57.6982 61.2697 57.9012 61.6244 57.9839 61.8388C58.0742 62.0457 58.1719 62.4595 58.2171 62.7403C58.2697 63.095 58.2622 63.4275 58.2095 63.7971C58.1644 64.1 58.0366 64.5361 57.9012 64.8095C57.7433 65.1346 57.4877 65.4598 57.1342 65.8145C56.7206 66.2135 56.4499 66.4057 55.9837 66.6273C55.6378 66.7899 55.3596 66.9378 55.3596 66.9747C55.3596 67.0043 55.5326 67.0634 55.7506 67.1077C55.9687 67.152 56.4199 67.3146 56.7507 67.4698C57.0816 67.625 57.5328 67.9132 57.7584 68.1053C57.9764 68.3048 58.2547 68.6005 58.3675 68.763C58.4802 68.9256 58.6457 69.2581 58.7359 69.502C58.8261 69.7459 58.9239 70.1966 58.9465 70.4996C58.9765 70.8913 58.9465 71.1943 58.8637 71.5194C58.7961 71.7706 58.6532 72.1549 58.5404 72.3692C58.4351 72.5835 58.1268 72.9604 57.8486 73.2265C57.4726 73.5737 57.1568 73.7881 56.6003 74.0542C56.1868 74.2537 55.5551 74.4828 55.2092 74.5788C54.5926 74.734 54.4121 74.7414 46.5616 74.7857L46.5992 74.3793L47.9903 74.3424V59.7844H47.276C46.5767 59.7844 46.5616 59.777 46.5466 59.6144C46.5391 59.5184 46.5616 59.4149 46.5992 59.3928C46.6293 59.3632 48.0655 59.341 49.7875 59.341ZM50.6072 63.3832L50.6222 66.8786C52.1637 66.8786 52.818 66.849 53.0661 66.8047C53.3143 66.7677 53.6752 66.6717 53.8707 66.583C54.0662 66.5017 54.3745 66.3096 54.5475 66.147C54.7279 65.9918 54.9535 65.6962 55.0513 65.5041C55.149 65.3046 55.2769 64.9794 55.3295 64.7725C55.3897 64.573 55.4498 64.0852 55.4724 63.701C55.5025 63.2354 55.4799 62.7995 55.4122 62.4078C55.3521 62.0826 55.2242 61.6318 55.119 61.4101C55.0212 61.1885 54.7881 60.8411 54.6001 60.649C54.4196 60.4495 54.0963 60.213 53.8933 60.1096C53.6827 60.0134 53.2767 59.9026 52.9909 59.8583C52.6976 59.8213 52.0735 59.7844 51.5923 59.7844C51.111 59.7844 50.6899 59.8065 50.6598 59.8361C50.6222 59.8583 50.5997 61.4545 50.6072 63.3832ZM50.6222 74.3424C53.0435 74.3424 53.5624 74.3128 53.8707 74.2315C54.1113 74.1724 54.4422 74.0542 54.6076 73.9729C54.7731 73.8916 55.0588 73.6846 55.2543 73.5146C55.4498 73.3299 55.6829 73.0122 55.8108 72.7535C55.9236 72.5096 56.0589 72.1328 56.104 71.9258C56.1492 71.7115 56.1868 71.1943 56.1868 70.7804C56.1868 70.2779 56.1416 69.8567 56.0514 69.539C55.9762 69.2729 55.8258 68.9108 55.7205 68.7261C55.6153 68.5413 55.3446 68.2309 55.1265 68.0388C54.9009 67.8393 54.5324 67.6102 54.3068 67.5215C53.9384 67.3811 53.7053 67.3663 52.2615 67.3368L50.6297 67.3072L50.6222 74.3424Z" fill="#131815"/>
</g>
</g>
<defs>
<clipPath id="clip0_1_3">
<rect width="134" height="75" fill="white"/>
</clipPath>
</defs>
</svg>
